<?xml version="1.0" encoding="UTF-8"?>
<!DOCTYPE svg PUBLIC "-//W3C//DTD SVG 1.1//EN" "http://www.w3.org/Graphics/SVG/1.1/DTD/svg11.dtd">
<!-- Creator: CorelDRAW -->
<svg xmlns="http://www.w3.org/2000/svg" xml:space="preserve" width="140mm" height="80mm" style="shape-rendering:geometricPrecision; text-rendering:geometricPrecision; image-rendering:optimizeQuality; fill-rule:evenodd; clip-rule:evenodd"
viewBox="0 0 140 80"
 xmlns:xlink="http://www.w3.org/1999/xlink">
 <defs>
  <style type="text/css">
   <![CDATA[
    .str0 {stroke:#C00B0B;stroke-width:0.5}
    .str1 {stroke:#C00B0B}
    .str2 {stroke:#666666;stroke-width:2}
    .fil2 {fill:none}
    .fil1 {fill:#1A1A1A;fill-rule:nonzero}
    .fil0 {fill:#C00B0B;fill-rule:nonzero}
   ]]>
  </style>
 </defs>
 <g id="Layer_x0020_1">
  <metadata id="CorelCorpID_0Corel-Layer"/>
  <g id="_228558000">
   <path id="_229150424" class="fil0 str0" d="M20.5461 36.0768l1.2894 0 3.1393 5.0974 2.747 -5.0974 1.267 0 -3.6125 6.471c-0.453,0.8099 -0.823,1.3388 -1.11,1.5887 -0.2893,0.25 -0.7041,0.3759 -1.2423,0.3759 -0.3296,0 -0.731,-0.0678 -1.2086,-0.1995l0 -0.9416c0.3408,0.1704 0.7018,0.2557 1.083,0.2557 0.3117,0 0.5785,-0.0872 0.805,-0.2596 0.2265,-0.1725 0.4732,-0.5638 0.7468,-1.178l-3.9041 -6.1126zm16.392 5.4035l1.276 0.279c-0.2669,0.9028 -0.749,1.5926 -1.4419,2.0692 -0.6952,0.4747 -1.5428,0.711 -2.5473,0.711 -1.0384,0 -1.8814,-0.1821 -2.5317,-0.5463 -0.6504,-0.3662 -1.1459,-0.8951 -1.4845,-1.5868 -0.3387,-0.6936 -0.509,-1.4376 -0.509,-2.2319 0,-0.8661 0.1906,-1.6217 0.574,-2.2669 0.3835,-0.6451 0.9284,-1.1353 1.6369,-1.4705 0.7064,-0.3352 1.4845,-0.5018 2.3344,-0.5018 0.9642,0 1.7737,0.2112 2.4308,0.6355 0.657,0.4243 1.1144,1.0191 1.3723,1.7883l-1.2535 0.2557c-0.2243,-0.6064 -0.5471,-1.0462 -0.9732,-1.3233 -0.4238,-0.277 -0.9576,-0.4146 -1.6033,-0.4146 -0.74,0 -1.3567,0.1531 -1.8545,0.4592 -0.4978,0.308 -0.8476,0.7188 -1.0472,1.2361 -0.2018,0.5153 -0.3027,1.0481 -0.3027,1.5964 0,0.7092 0.1188,1.3253 0.3565,1.8542 0.24,0.527 0.61,0.9222 1.1145,1.1838 0.5045,0.2615 1.0494,0.3913 1.6369,0.3913 0.7132,0 1.3163,-0.1782 1.8119,-0.5328 0.4956,-0.3565 0.8298,-0.8854 1.0046,-1.5848zm4.8503 2.9178l0 -7.3391 -3.173 0 0 -0.9822 7.6332 0 0 0.9822 -3.1866 0 0 7.3391 -1.2736 0zm4.2629 0l3.6999 -8.3213 1.3723 0 3.9421 8.3213 -1.4531 0 -1.1233 -2.5206 -4.0274 0 -1.0562 2.5206 -1.3543 0zm2.7783 -3.4177l3.2671 0 -1.0068 -2.3036c-0.305,-0.6994 -0.5337,-1.2748 -0.6817,-1.7263 -0.1233,0.5348 -0.296,1.0637 -0.5203,1.5907l-1.0583 2.4392zm7.2923 3.4177l0 -8.3213 1.2759 0 0 3.4176 5.005 0 0 -3.4176 1.276 0 0 8.3213 -1.276 0 0 -3.9214 -5.005 0 0 3.9214 -1.2759 0zm9.2903 -4.0531c0,-1.3814 0.4282,-2.4625 1.2871,-3.2433 0.8588,-0.7808 1.9666,-1.1722 3.3255,-1.1722 0.8879,0 1.6907,0.1841 2.4038,0.5502 0.7132,0.3682 1.2581,0.8796 1.6325,1.5364 0.3745,0.6549 0.5606,1.4008 0.5606,2.232 0,0.8447 -0.1951,1.6003 -0.5898,2.2649 -0.3947,0.6664 -0.953,1.1702 -1.6751,1.5131 -0.7243,0.3429 -1.5023,0.5134 -2.3387,0.5134 -0.9083,0 -1.7177,-0.1879 -2.4308,-0.5676 -0.7154,-0.3778 -1.2558,-0.8951 -1.6235,-1.55 -0.3678,-0.6529 -0.5516,-1.3465 -0.5516,-2.0769zm1.314 0.0174c0,1.0036 0.3117,1.7921 0.9351,2.3695 0.6256,0.5774 1.4082,0.866 2.35,0.866 0.9598,0 1.7491,-0.2906 2.368,-0.8738 0.6189,-0.5831 0.9306,-1.4104 0.9306,-2.4818 0,-0.6762 -0.1346,-1.2671 -0.3992,-1.7728 -0.2645,-0.5057 -0.6525,-0.897 -1.1615,-1.176 -0.5112,-0.2771 -1.0831,-0.4166 -1.7177,-0.4166 -0.9037,0 -1.6795,0.2674 -2.3299,0.8041 -0.6503,0.5347 -0.9754,1.4298 -0.9754,2.6814zm9.4853 4.0357l0 -8.3213 3.6148 0c0.7355,0 1.3252,0.0852 1.7693,0.2518 0.4462,0.1686 0.7938,0.4282 1.0449,0.7789 0.2512,0.3487 0.379,0.7149 0.379,1.0985 0,0.3546 -0.1121,0.6897 -0.3364,1.0036 -0.222,0.3139 -0.5605,0.5677 -1.0113,0.7614 0.5831,0.1473 1.0293,0.3991 1.3433,0.7537 0.3138,0.3565 0.4708,0.7769 0.4708,1.2613 0,0.3894 -0.0964,0.7517 -0.2871,1.0869 -0.1905,0.3352 -0.426,0.5928 -0.7063,0.775 -0.2802,0.1821 -0.6323,0.3177 -1.0539,0.4107 -0.4216,0.093 -0.9396,0.1395 -1.554,0.1395l-3.6731 0zm1.2759 -4.8243l2.0832 0c0.5629,0 0.9688,-0.0329 1.2154,-0.0968 0.3229,-0.0833 0.5674,-0.2209 0.731,-0.4146 0.1638,-0.1938 0.2468,-0.436 0.2468,-0.7266 0,-0.2751 -0.0763,-0.5192 -0.2288,-0.7285 -0.1547,-0.2111 -0.3744,-0.3545 -0.657,-0.432 -0.2848,-0.0775 -0.7736,-0.1163 -1.4665,-0.1163l-1.9241 0 0 2.5148zm0 3.842l2.3972 0c0.4127,0 0.7019,-0.0135 0.8679,-0.0387 0.2937,-0.0465 0.5381,-0.1221 0.7355,-0.2287 0.1973,-0.1046 0.3588,-0.2596 0.4866,-0.4611 0.1255,-0.2034 0.1906,-0.4359 0.1906,-0.7013 0,-0.31 -0.092,-0.5793 -0.2758,-0.8099 -0.1839,-0.2286 -0.4396,-0.3894 -0.7669,-0.4824 -0.3253,-0.0911 -0.7961,-0.1376 -1.4083,-0.1376l-2.2268 0 0 2.8597zm6.9179 -3.0708c0,-1.3814 0.4283,-2.4625 1.2872,-3.2433 0.8587,-0.7808 1.9665,-1.1722 3.3254,-1.1722 0.8879,0 1.6907,0.1841 2.4038,0.5502 0.7132,0.3682 1.2581,0.8796 1.6325,1.5364 0.3745,0.6549 0.5606,1.4008 0.5606,2.232 0,0.8447 -0.1951,1.6003 -0.5898,2.2649 -0.3946,0.6664 -0.953,1.1702 -1.6751,1.5131 -0.7243,0.3429 -1.5023,0.5134 -2.3387,0.5134 -0.9082,0 -1.7177,-0.1879 -2.4308,-0.5676 -0.7154,-0.3778 -1.2558,-0.8951 -1.6235,-1.55 -0.3678,-0.6529 -0.5516,-1.3465 -0.5516,-2.0769zm1.314 0.0174c0,1.0036 0.3117,1.7921 0.9351,2.3695 0.6257,0.5774 1.4082,0.866 2.3501,0.866 0.9597,0 1.749,-0.2906 2.3679,-0.8738 0.619,-0.5831 0.9307,-1.4104 0.9307,-2.4818 0,-0.6762 -0.1347,-1.2671 -0.3992,-1.7728 -0.2646,-0.5057 -0.6526,-0.897 -1.1616,-1.176 -0.5112,-0.2771 -1.0831,-0.4166 -1.7177,-0.4166 -0.9037,0 -1.6795,0.2674 -2.3298,0.8041 -0.6504,0.5347 -0.9755,1.4298 -0.9755,2.6814zm16.114 4.0357l-1.2737 0 0 -3.3537c-1.1436,0.3662 -2.1438,0.5502 -3.0025,0.5502 -0.6705,0 -1.2603,-0.1356 -1.7739,-0.4069 -0.5112,-0.2693 -0.8542,-0.6141 -1.0269,-1.0287 -0.1749,-0.4166 -0.2602,-0.963 -0.2602,-1.6352l0 -2.447 1.2737 0 0 2.3443c0,0.9086 0.1928,1.5054 0.5763,1.7902 0.3812,0.2867 0.8431,0.4301 1.3813,0.4301 0.8992,0 1.8433,-0.1724 2.8322,-0.5173l0 -4.0473 1.2737 0 0 8.3213zm2.1348 0l0 -8.3213 1.2759 0 0 3.4176 5.0051 0 0 -3.4176 1.2759 0 0 8.3213 -1.2759 0 0 -3.9214 -5.0051 0 0 3.9214 -1.2759 0zm9.7432 -8.3213l1.2759 0 0 3.5532 2.2985 0c1.5069,0 2.498,0.2403 2.9735,0.7208 0.4753,0.4805 0.713,1.0249 0.713,1.6352 0,0.6432 -0.2556,1.2051 -0.7623,1.6875 -0.5091,0.4824 -1.4531,0.7246 -2.8322,0.7246l-3.6664 0 0 -8.3213zm1.2759 7.3855l2.3322 0c0.8006,0 1.3813,-0.1162 1.7423,-0.3507 0.3632,-0.2325 0.5426,-0.6045 0.5426,-1.114 0,-0.3487 -0.1098,-0.6394 -0.3273,-0.8738 -0.2198,-0.2364 -0.5023,-0.3855 -0.8477,-0.4495 -0.3475,-0.0639 -0.9238,-0.0969 -1.7356,-0.0969l-1.7065 0 0 2.8849zm7.1399 -7.3855l1.2736 0 0 8.3213 -1.2736 0 0 -8.3213zm3.451 0l1.1549 0 0 6.5892 5.1238 -6.5892 1.2827 0 0 8.3213 -1.1572 0 0 -6.5738 -5.1306 6.5738 -1.2736 0 0 -8.3213zm4.7898 -1.9801l0.8073 0c-0.0651,0.4727 -0.2647,0.837 -0.6011,1.0888 -0.3341,0.2538 -0.7803,0.3817 -1.3364,0.3817 -0.5607,0 -1.0091,-0.1259 -1.3432,-0.3778 -0.3364,-0.2519 -0.536,-0.6161 -0.601,-1.0927l0.8073 0c0.0605,0.2577 0.1839,0.4495 0.3655,0.5754 0.1816,0.1279 0.426,0.1899 0.731,0.1899 0.3566,0 0.6234,-0.0601 0.8051,-0.1841 0.1816,-0.122 0.305,-0.3158 0.3655,-0.5812z"/>
   <path id="_229149920" class="fil0 str1" d="M36.9415 48.1055l2.8975 0 0 19.3236 11.4166 0 0 -19.3236 2.9179 0 0 19.3236 1.9997 0 0 8.667 -2.571 0 0 -6.0807 -16.6607 0 0 -21.9099zm22.6852 21.9099l0 -21.9099 15.8394 0 0 2.5864 -12.9419 0 0 6.7081 12.1206 0 0 2.571 -12.1206 0 0 7.4581 13.452 0 0 2.5863 -16.3495 0zm20.4407 0l0 -21.9099 2.9026 0 0 8.9986 11.386 0 0 -8.9986 2.9026 0 0 21.9099 -2.9026 0 0 -10.3249 -11.386 0 0 10.3249 -2.9026 0zm27.5926 0l0 -19.3235 -7.2182 0 0 -2.5864 17.3646 0 0 2.5864 -7.2488 0 0 19.3235 -2.8976 0zm13.1205 0l0 -21.9099 8.264 0c1.4539,0 2.5659,0.0714 3.3311,0.2092 1.0764,0.1785 1.9793,0.5203 2.7088,1.0253 0.7244,0.5 1.311,1.209 1.7548,2.112 0.4438,0.908 0.6632,1.9027 0.6632,2.9893 0,1.8619 -0.5918,3.4433 -1.7753,4.7339 -1.1885,1.2856 -3.3311,1.9334 -6.4275,1.9334l-5.6216 0 0 8.9068 -2.8975 0zm2.8975 -11.4931l5.6675 0c1.8721,0 3.2036,-0.3469 3.9892,-1.0458 0.7855,-0.6988 1.1783,-1.6783 1.1783,-2.9434 0,-0.9182 -0.2295,-1.7038 -0.6937,-2.3568 -0.4642,-0.6529 -1.0713,-1.0814 -1.8314,-1.2906 -0.4897,-0.1275 -1.3875,-0.1938 -2.7036,-0.1938l-5.6063 0 0 7.8304z"/>
   <path id="_229149704" class="fil1" d="M59.263 76.2525l0 -3.0687 0.5954 0 0.7068 2.1727c0.0654,0.2022 0.1133,0.3537 0.1426,0.4544 0.034,-0.1114 0.0869,-0.2757 0.1592,-0.4922l0.7151 -2.1349 0.5322 0 0 3.0687 -0.3812 0 0 -2.5686 -0.8681 2.5686 -0.3568 0 -0.864 -2.6122 0 2.6122 -0.3812 0zm3.5093 -3.0687l0.3958 0 0 1.3104 0.713 0c0.4674,0 0.7748,0.0886 0.9223,0.2657 0.1475,0.1772 0.2212,0.378 0.2212,0.6031 0,0.2372 -0.0792,0.4444 -0.2365,0.6223 -0.1579,0.1779 -0.4507,0.2672 -0.8785,0.2672l-1.1373 0 0 -3.0687zm0.3958 2.7236l0.7234 0c0.2483,0 0.4285,-0.0429 0.5405,-0.1293 0.1126,-0.0858 0.1683,-0.2229 0.1683,-0.4108 0,-0.1287 -0.034,-0.2358 -0.1015,-0.3223 -0.0682,-0.0871 -0.1559,-0.1422 -0.263,-0.1657 -0.1077,-0.0236 -0.2866,-0.0358 -0.5383,-0.0358l-0.5294 0 0 1.0639zm2.2148 -2.7236l0.395 0 0 3.0687 -0.395 0 0 -3.0687zm2.495 0l1.8176 0 0 2.7065 0.2691 0 0 1.0781 -0.3526 0 0 -0.7159 -1.9748 0 0 0.7159 -0.3527 0 0 -1.0781 0.2323 0c0.2407,-0.3723 0.3611,-1.1254 0.3611,-2.2585l0 -0.448zm1.4218 0.3622l-1.0413 0 0 0.1572c0,0.2608 -0.0223,0.6173 -0.0682,1.0703 -0.0452,0.453 -0.135,0.8252 -0.2678,1.1168l1.3773 0 0 -2.3443zm1.1414 2.7065l0 -3.0687 2.1598 0 0 0.3622 -1.7647 0 0 0.9396 1.6527 0 0 0.3601 -1.6527 0 0 1.0446 1.8343 0 0 0.3622 -2.2294 0zm2.9931 -3.0687l1.8712 0 0 3.0687 -0.3958 0 0 -2.7065 -1.0795 0 0 1.5805c0,0.3208 -0.0146,0.5558 -0.0439,0.7052 -0.0292,0.1493 -0.0911,0.2658 -0.1843,0.3486 -0.0939,0.0829 -0.2129,0.1244 -0.3569,0.1244 -0.0869,0 -0.1913,-0.0165 -0.3136,-0.0501l0.0668 -0.3601c0.0653,0.0279 0.121,0.0422 0.1675,0.0422 0.0898,0 0.1565,-0.035 0.2017,-0.1036 0.0446,-0.0693 0.0668,-0.2322 0.0668,-0.4887l0 -2.1606zm2.1932 3.0687l1.1478 -3.0687 0.4256 0 1.2229 3.0687 -0.4508 0 -0.3484 -0.9295 -1.2494 0 -0.3276 0.9295 -0.4201 0zm0.8618 -1.2603l1.0135 0 -0.3123 -0.8496c-0.0946,-0.2579 -0.1655,-0.4701 -0.2115,-0.6366 -0.0382,0.1972 -0.0918,0.3923 -0.1613,0.5866l-0.3284 0.8996zm2.2587 1.2603l0 -3.0687 2.1598 0 0 0.3622 -1.7647 0 0 0.9396 1.6527 0 0 0.3601 -1.6527 0 0 1.0446 1.8342 0 0 0.3622 -2.2293 0zm2.7628 0l0 -3.0687 0.5955 0 0.7068 2.1727c0.0653,0.2022 0.1133,0.3537 0.1425,0.4544 0.0341,-0.1114 0.0869,-0.2757 0.1593,-0.4922l0.7151 -2.1349 0.5321 0 0 3.0687 -0.3811 0 0 -2.5686 -0.8682 2.5686 -0.3568 0 -0.8639 -2.6122 0 2.6122 -0.3813 0zm4.6549 -3.0687l0.3952 0 0 1.3439c0.1808,0 0.3074,-0.0357 0.3811,-0.1078 0.0731,-0.0722 0.167,-0.2444 0.2811,-0.5181 0.0828,-0.2007 0.1509,-0.3429 0.2051,-0.4258 0.0536,-0.0829 0.1301,-0.1529 0.2289,-0.2093 0.0995,-0.0565 0.2087,-0.085 0.3283,-0.085 0.1524,0 0.2324,0.0014 0.2407,0.0042l0 0.3516c-0.014,0 -0.0403,-0.0008 -0.08,-0.0022 -0.0431,-0.0014 -0.0696,-0.0021 -0.0793,-0.0021 -0.1266,0 -0.2198,0.0314 -0.281,0.0943 -0.0626,0.0629 -0.1342,0.1972 -0.2143,0.4022 -0.1001,0.2594 -0.1849,0.423 -0.2545,0.4909 -0.0696,0.0672 -0.1524,0.1215 -0.2484,0.1622 0.1927,0.0543 0.3826,0.2372 0.5704,0.548l0.6156 1.0217 -0.4911 0 -0.4994 -0.8331c-0.137,-0.2301 -0.2525,-0.388 -0.3444,-0.4744 -0.0924,-0.0857 -0.2121,-0.1286 -0.3588,-0.1286l0 1.4361 -0.3952 0 0 -3.0687zm2.2579 1.574c0,-0.5094 0.1329,-0.9081 0.3993,-1.196 0.2664,-0.288 0.61,-0.4323 1.0315,-0.4323 0.2755,0 0.5245,0.0679 0.7457,0.2029 0.2212,0.1358 0.3902,0.3244 0.5064,0.5666 0.1162,0.2415 0.1739,0.5166 0.1739,0.8231 0,0.3115 -0.0605,0.5901 -0.1829,0.8352 -0.1225,0.2458 -0.2957,0.4316 -0.5196,0.558 -0.2247,0.1265 -0.4661,0.1894 -0.7256,0.1894 -0.2817,0 -0.5327,-0.0693 -0.754,-0.2094 -0.2219,-0.1393 -0.3895,-0.3301 -0.5035,-0.5716 -0.1141,-0.2408 -0.1712,-0.4965 -0.1712,-0.7659zm0.4076 0.0064c0,0.3701 0.0967,0.6609 0.2901,0.8738 0.1941,0.213 0.4368,0.3194 0.729,0.3194 0.2977,0 0.5425,-0.1072 0.7345,-0.3222 0.192,-0.2151 0.2887,-0.5202 0.2887,-0.9153 0,-0.2493 -0.0418,-0.4672 -0.1239,-0.6537 -0.082,-0.1865 -0.2024,-0.3308 -0.3603,-0.4337 -0.1586,-0.1022 -0.336,-0.1536 -0.5328,-0.1536 -0.2803,0 -0.521,0.0986 -0.7227,0.2965 -0.2017,0.1972 -0.3026,0.5273 -0.3026,0.9888zm2.9465 1.4883l0 -3.0687 0.5954 0 0.7068 2.1727c0.0654,0.2022 0.1134,0.3537 0.1426,0.4544 0.034,-0.1114 0.0869,-0.2757 0.1592,-0.4922l0.7151 -2.1349 0.5322 0 0 3.0687 -0.3812 0 0 -2.5686 -0.8681 2.5686 -0.3568 0 -0.864 -2.6122 0 2.6122 -0.3812 0zm4.5228 -2.7l0 -0.3937 0.3707 0 0 0.3937c0.3805,0.0207 0.6803,0.1386 0.9008,0.3522 0.2199,0.2144 0.3297,0.4809 0.3297,0.7988 0,0.3115 -0.1064,0.5759 -0.3199,0.7931 -0.213,0.2179 -0.5169,0.3379 -0.9106,0.3601l0 0.3958 -0.3707 0 0 -0.3958c-0.3534,-0.0136 -0.6476,-0.1243 -0.8828,-0.3315 -0.2351,-0.2072 -0.3526,-0.4809 -0.3526,-0.8217 0,-0.3415 0.1175,-0.6152 0.352,-0.8202 0.2344,-0.2058 0.5286,-0.3158 0.8834,-0.3308zm0.3707 0.3472l0 1.6076c0.2553,-0.0129 0.4563,-0.0886 0.6031,-0.2279 0.1467,-0.1401 0.2198,-0.3315 0.2198,-0.5759 0,-0.2401 -0.0716,-0.4301 -0.2156,-0.5702 -0.144,-0.1407 -0.3465,-0.2179 -0.6073,-0.2336zm-0.3707 0.0021c-0.2462,0.0115 -0.4452,0.0858 -0.5975,0.2237 -0.1524,0.1386 -0.2282,0.3308 -0.2282,0.578 0,0.2444 0.0752,0.4358 0.2254,0.5759 0.1502,0.1393 0.3499,0.2143 0.6003,0.2258l0 -1.6034zm1.9727 0.856c0,-0.5094 0.1329,-0.9081 0.3992,-1.196 0.2665,-0.288 0.6101,-0.4323 1.0316,-0.4323 0.2754,0 0.5245,0.0679 0.7457,0.2029 0.2212,0.1358 0.3902,0.3244 0.5064,0.5666 0.1162,0.2415 0.1739,0.5166 0.1739,0.8231 0,0.3115 -0.0606,0.5901 -0.1829,0.8352 -0.1225,0.2458 -0.2957,0.4316 -0.5196,0.558 -0.2247,0.1265 -0.4661,0.1894 -0.7256,0.1894 -0.2817,0 -0.5327,-0.0693 -0.754,-0.2094 -0.2219,-0.1393 -0.3896,-0.3301 -0.5036,-0.5716 -0.1141,-0.2408 -0.1711,-0.4965 -0.1711,-0.7659zm0.4076 0.0064c0,0.3701 0.0967,0.6609 0.29,0.8738 0.1942,0.213 0.4369,0.3194 0.729,0.3194 0.2978,0 0.5426,-0.1072 0.7346,-0.3222 0.192,-0.2151 0.2887,-0.5202 0.2887,-0.9153 0,-0.2493 -0.0418,-0.4672 -0.1239,-0.6537 -0.0821,-0.1865 -0.2024,-0.3308 -0.3603,-0.4337 -0.1586,-0.1022 -0.336,-0.1536 -0.5328,-0.1536 -0.2803,0 -0.521,0.0986 -0.7227,0.2965 -0.2017,0.1972 -0.3026,0.5273 -0.3026,0.9888zm2.9591 1.4883l0 -3.0687 1.1268 0c0.1983,0 0.3499,0.01 0.4542,0.0293 0.1468,0.025 0.2699,0.0729 0.3694,0.1436 0.0988,0.07 0.1787,0.1693 0.2393,0.2958 0.0605,0.1272 0.0904,0.2665 0.0904,0.4187 0,0.2608 -0.0807,0.4823 -0.2421,0.663 -0.162,0.1801 -0.4542,0.2708 -0.8764,0.2708l-0.7666 0 0 1.2475 -0.395 0zm0.395 -1.6097l0.7728 0c0.2553,0 0.4369,-0.0486 0.544,-0.1465 0.1071,-0.0979 0.1607,-0.2351 0.1607,-0.4123 0,-0.1286 -0.0314,-0.2386 -0.0946,-0.33 -0.0633,-0.0915 -0.1461,-0.1515 -0.2498,-0.1808 -0.0667,-0.0179 -0.1891,-0.0272 -0.3686,-0.0272l-0.7645 0 0 1.0968zm2.9612 1.6097l0 -2.7065 -0.9843 0 0 -0.3622 2.3678 0 0 0.3622 -0.9883 0 0 2.7065 -0.3952 0zm3.2199 -3.0687l1.8176 0 0 2.7065 0.2692 0 0 1.0781 -0.3527 0 0 -0.7159 -1.9748 0 0 0.7159 -0.3526 0 0 -1.0781 0.2322 0c0.2407,-0.3723 0.3611,-1.1254 0.3611,-2.2585l0 -0.448zm1.4218 0.3622l-1.0413 0 0 0.1572c0,0.2608 -0.0223,0.6173 -0.0681,1.0703 -0.0453,0.453 -0.1351,0.8252 -0.2679,1.1168l1.3773 0 0 -2.3443zm1.0127 1.2118c0,-0.5094 0.1329,-0.9081 0.3993,-1.196 0.2664,-0.288 0.61,-0.4323 1.0316,-0.4323 0.2754,0 0.5244,0.0679 0.7456,0.2029 0.2212,0.1358 0.3902,0.3244 0.5065,0.5666 0.1161,0.2415 0.1738,0.5166 0.1738,0.8231 0,0.3115 -0.0605,0.5901 -0.1829,0.8352 -0.1225,0.2458 -0.2957,0.4316 -0.5196,0.558 -0.2247,0.1265 -0.466,0.1894 -0.7256,0.1894 -0.2816,0 -0.5327,-0.0693 -0.754,-0.2094 -0.2219,-0.1393 -0.3895,-0.3301 -0.5035,-0.5716 -0.1141,-0.2408 -0.1712,-0.4965 -0.1712,-0.7659zm0.4077 0.0064c0,0.3701 0.0966,0.6609 0.29,0.8738 0.1941,0.213 0.4368,0.3194 0.729,0.3194 0.2977,0 0.5425,-0.1072 0.7345,-0.3222 0.192,-0.2151 0.2887,-0.5202 0.2887,-0.9153 0,-0.2493 -0.0418,-0.4672 -0.1239,-0.6537 -0.082,-0.1865 -0.2024,-0.3308 -0.3603,-0.4337 -0.1586,-0.1022 -0.3359,-0.1536 -0.5328,-0.1536 -0.2803,0 -0.5209,0.0986 -0.7227,0.2965 -0.2017,0.1972 -0.3025,0.5273 -0.3025,0.9888zm5.0903 0.4123l0.3957 0.1029c-0.0827,0.3329 -0.2322,0.5873 -0.4472,0.763 -0.2156,0.1751 -0.4786,0.2623 -0.7901,0.2623 -0.3221,0 -0.5837,-0.0672 -0.7854,-0.2015 -0.2017,-0.1351 -0.3555,-0.3301 -0.4605,-0.5852 -0.1051,-0.2558 -0.1579,-0.5301 -0.1579,-0.8231 0,-0.3193 0.0592,-0.598 0.178,-0.8359 0.119,-0.2379 0.288,-0.4187 0.5079,-0.5423 0.2191,-0.1236 0.4604,-0.1851 0.7241,-0.1851 0.2991,0 0.5501,0.0779 0.754,0.2344 0.2038,0.1565 0.3457,0.3758 0.4257,0.6595l-0.3888 0.0943c-0.0696,-0.2237 -0.1698,-0.3859 -0.3019,-0.488 -0.1315,-0.1022 -0.297,-0.1529 -0.4974,-0.1529 -0.2296,0 -0.4208,0.0564 -0.5753,0.1693 -0.1544,0.1136 -0.2628,0.2651 -0.3247,0.4558 -0.0626,0.1901 -0.094,0.3866 -0.094,0.5888 0,0.2615 0.0369,0.4887 0.1106,0.6837 0.0745,0.1944 0.1893,0.3401 0.3457,0.4366 0.1566,0.0964 0.3256,0.1443 0.5078,0.1443 0.2212,0 0.4083,-0.0657 0.5621,-0.1965 0.1537,-0.1314 0.2574,-0.3265 0.3116,-0.5844zm1.5045 1.076l0 -2.7065 -0.9842 0 0 -0.3622 2.3678 0 0 0.3622 -0.9884 0 0 2.7065 -0.3952 0zm1.4872 -3.0687l0.4 0 0.9738 1.8798 0.8522 -1.8798 0.3929 0 -1.1206 2.3864c-0.1404,0.2986 -0.2552,0.4937 -0.3443,0.5858 -0.0897,0.0922 -0.2184,0.1387 -0.3853,0.1387 -0.1023,0 -0.2268,-0.0251 -0.375,-0.0736l0 -0.3473c0.1058,0.0629 0.2178,0.0943 0.336,0.0943 0.0967,0 0.1795,-0.0321 0.2497,-0.0957 0.0703,-0.0636 0.1469,-0.2079 0.2317,-0.4344l-1.2111 -2.2542zm2.9577 0l2.3497 0 0 3.0687 -0.3979 0 0 -2.7065 -1.5567 0 0 2.7065 -0.3951 0 0 -3.0687zm3.0078 3.0687l0 -3.0687 0.3958 0 0 1.2603 1.5525 0 0 -1.2603 0.3959 0 0 3.0687 -0.3959 0 0 -1.4461 -1.5525 0 0 1.4461 -0.3958 0zm3.0106 0l0 -3.0687 2.1598 0 0 0.3622 -1.7648 0 0 0.9396 1.6527 0 0 0.3601 -1.6527 0 0 1.0446 1.8343 0 0 0.3622 -2.2293 0zm2.7837 0l0 -3.0687 2.1599 0 0 0.3622 -1.7648 0 0 0.9396 1.6527 0 0 0.3601 -1.6527 0 0 1.0446 1.8343 0 0 0.3622 -2.2294 0z"/>
   <polyline id="_229149632" class="fil2 str2" points="44.3799,75.4861 16.9545,75.4838 16.7751,32.3688 4.2975,32.3688 20.3777,20.3131 20.3777,3.4886 34.5199,3.4886 34.5199,9.7103 43.4282,3.0315 43.4282,3.0315 43.4282,3.0315 82.956,32.3688 16.7751,32.3688 "/>
  </g>
 </g>
</svg>
